<?xml version="1.0" encoding="utf-8"?>
<!-- Generator: Adobe Illustrator 26.2.1, SVG Export Plug-In . SVG Version: 6.00 Build 0)  -->
<svg version="1.1" id="katman_1" xmlns="http://www.w3.org/2000/svg" xmlns:xlink="http://www.w3.org/1999/xlink" x="0px" y="0px"
	 viewBox="0 0 569 141.5" style="enable-background:new 0 0 569 141.5;" xml:space="preserve">
<style type="text/css">
	.st0{fill:none;}
	.st1{fill:#050505;}
	.st2{fill:#070707;}
	.st3{fill:#060606;}
	.st4{fill:#101010;}
	.st5{fill:#0E0E0E;}
	.st6{fill:#080808;}
	.st7{fill:#0C0C0C;}
	.st8{fill:#0B0B0B;}
	.st9{fill:#0A0A0A;}
	.st10{fill:#090909;}
	.st11{fill:#C39506;}
	.st12{fill:#C29505;}
	.st13{fill:#141414;}
	.st14{fill:#C3970A;}
	.st15{fill:#151515;}
	.st16{fill:#141313;}
	.st17{fill:#171717;}
	.st18{fill:#1F1F1F;}
	.st19{fill:#1B1B1B;}
	.st20{fill:#181818;}
	.st21{fill:#C79D16;}
	.st22{fill:#E7D285;}
	.st23{fill:#1A1A1A;}
	.st24{fill:#E3CC7A;}
	.st25{fill:#C59A0F;}
	.st26{fill:#C9A01B;}
	.st27{fill:#C79C14;}
	.st28{fill:#C69B13;}
	.st29{fill:#C69C14;}
	.st30{fill:#E6D184;}
	.st31{fill:#E0C76E;}
	.st32{fill:#CAA220;}
	.st33{fill:#D0AC35;}
	.st34{fill:#DDC365;}
	.st35{fill:#C89F19;}
	.st36{fill:#C89F1A;}
	.st37{fill:#E3CC79;}
	.st38{fill:#CDA82D;}
	.st39{fill:#CCA527;}
	.st40{fill:#D5B548;}
	.st41{fill:#C4970A;}
	.st42{fill:#CCA526;}
	.st43{fill:#D8B950;}
	.st44{fill:#DBBF5C;}
	.st45{fill:#D2AF3C;}
	.st46{fill:#D2B03E;}
	.st47{fill:#D7B950;}
	.st48{fill:#C5990D;}
	.st49{fill:#CFAA32;}
	.st50{fill:#E1C972;}
	.st51{fill:#D9BC56;}
	.st52{fill:#D5B549;}
	.st53{fill:#E0C66D;}
	.st54{fill:#D9BB56;}
	.st55{fill:#D1AD38;}
	.st56{fill:#DDC162;}
	.st57{fill:#D3B241;}
	.st58{fill:#D4B243;}
	.st59{fill:#DEC467;}
	.st60{fill:#121212;}
	.st61{fill:#E9D58D;}
	.st62{fill:#191919;}
	.st63{fill:#242424;}
	.st64{fill:#2A2A2A;}
	.st65{fill:#343434;}
	.st66{fill:#292929;}
	.st67{fill:#E5E5E5;}
	.st68{fill:#C2C2C2;}
	.st69{fill:#5C5C5C;}
	.st70{fill:#CCCCCC;}
	.st71{fill:#919191;}
	.st72{fill:#FBFBFB;}
	.st73{fill:#BDBDBD;}
	.st74{fill:#9C9C9C;}
	.st75{fill:#C5C5C5;}
	.st76{fill:#1D1D1D;}
	.st77{fill:#7D7D7D;}
	.st78{fill:#F7F7F7;}
	.st79{fill:#EEEEEE;}
	.st80{fill:#262626;}
	.st81{fill:#222222;}
	.st82{fill:#FEFEFE;}
	.st83{fill:#252525;}
	.st84{fill:#CDCDCD;}
	.st85{fill:#E1E1E1;}
	.st86{fill:#D4D4D4;}
	.st87{fill:#C39608;}
	.st88{fill:#C69B11;}
	.st89{fill:#C4980C;}
	.st90{font-family:'MyriadPro-Bold';}
	.st91{font-size:32.52px;}
</style>
<path class="st0" d="M540,124.9c-178.5,0-356.9,0-535.4,0.1c-3.8,0-4.6-0.8-4.6-4.6c0.2-39,0.2-77.9,0-116.9C0,0.6,0.6,0,3.6,0
	c187.3,0.1,374.6,0.1,561.8,0c3,0,3.6,0.6,3.6,3.5c-0.1,39.3-0.1,78.6,0,117.9c0,3-0.6,3.7-3.6,3.6c-7.8-0.3-15.6-0.1-23.5-0.1
	c-2.1-2.6-1.4-5.8-1.2-8.6c0.7-10.3-2.7-19-8.8-27.2c-3.6-4.9-5.3-11-7.8-16.5c-0.5-1.1-0.6-2.3,0.7-3c1.1-0.6,1.8,0.3,2.6,0.8
	c5.3,3.4,10.5,7,16.2,9.7c3.4,1.6,5.7,4.5,7.8,7.4c2.1-0.3,1.1-3.4,3.2-3.3c1.8,0.1,2.7,1.7,3.8,2.9c4.5,5.3,5,10.6,1.7,16.9
	c-0.6,1.2-1.5,2.2-1.5,3.6c6.5-3,8.4-9,6.6-15.5c-2.5-8.9-8.7-14.6-15.6-19.9c-7.7-5.8-14.4-12.8-20.8-19.9
	c-8.8-9.7-9.6-27.6-2.5-38.5c1.7-2.6,4.4-4,6.5-6.1c1-1,2.5-2.1,2-3.7c-0.7-2-2.6-1-3.9-0.8c-9.9,1.3-19.5,4.2-28.5,8.5
	c-4.7,1.7-9.2,3.8-13.9,5.3s-8.1,5.6-11.9,8.7c-1.7,1.3-2.9,3.2-4.7,4.4c-9.3,6.4-15.7,16.1-17.9,27.2c-0.8,5.1-0.8,10.2,0,15.3
	c1.5,3.8,1.4,8.2,3.8,11.8c1.4,2.3,2.6,4.8,3.9,7.2c0.8,1.6,1.8,2.9,3.1,4.1c1.5,1.6,3.3,3.1,5.2,4.3c4.7,6.4,12,10.4,16.6,17
	c0.7,1,2.1,2.3,3.3,1.4c1.7-1.3,0.2-2.8-0.8-3.7c-6.4-6.2-11.9-13.4-18-19.8c-12-12.5-12-35.2-1.8-47.3
	c9.9-11.9,22.5-21.2,36.7-27.2c1.6-0.7,3.5-1.9,5-0.1c1.3,1.6-0.4,3-0.9,4.5c-1.2,3.2-3.4,6.1-4.3,9.5c-1,3.8-2.7,4.6-5.9,2.1
	c-0.4-0.4-1-0.4-1.5-0.2c-0.6,2,1.2,2.8,2.2,3.9c3.4,4,3.4,4.8-0.3,8.6c-2.8,2.8-6.3,4.9-9.3,7.4c-3.5,2.9-3.7,4.2-0.2,7
	s3.1,4.9,1.4,8.8s-4.1,8.9-0.6,13.6c1.1,1.4,0.7,2.7,0.1,4.2c-2.8,7.3,1.2,13.6,9.2,14.1c5.5,0.3,11,0.3,16.4,0
	c7.3-0.4,12.5,2.6,16.4,8.4C536.4,116.1,539.5,119.9,540,124.9z"/>
<path class="st1" d="M540,124.9c-2-3.4-4-7-6.1-10.3c-4.1-6.6-9.5-10.7-17.9-9.9c-5.1,0.4-10.3-0.1-15.4,0.1
	c-5.6,0.2-8.6-3.3-10.7-7.3c-1.8-3-1-6.8,1.8-8.9c1.7-1.4,0.5-2-0.8-2.8c-2.8-1.8-4.7-4-0.8-6.7c0.4-0.3,0.6-0.7,0.8-1.1
	c-4.6-4.1-0.1-6,2-8.7c0.9-0.9,0.8-2.3-0.1-3.2c-0.2-0.2-0.5-0.4-0.9-0.5c-0.7-0.4-1.4-0.8-2-1.4c-4.5-4.4-4.4-5.6,0.5-9.5
	c3.4-2.8,7.5-4.6,10.6-7.9c2-2.1,2.3-3.4-0.1-5c-0.3-0.2-0.7-0.2-0.9-0.5c-1.8-2.2-5.9-4.4-3.4-7.1s4,1.7,6,2.9
	c0.3,0.1,0.6,0.2,0.9,0.2c1.6-5.1,3.7-9.9,6.5-14.5c0.4-0.7,1.2-1.4,0.6-2.2s-1.3-0.4-2.1,0c-17.4,6.8-32,17.4-41.8,33.2
	c-6.3,10.1-5,29.8,4.9,39.9c6.6,6.7,12.5,14,19.4,20.6c1.7,1.6,3.1,3.8,0.7,5.9s-4.3,0-5.4-1.5c-4.8-7-12.7-11-17.2-18.2
	c-1.7-1.4-3.1-3.1-5-4.1c-1.5-0.9-3-1.7-3-3.7c-0.3-0.9-0.6-1.9,0.5-2.5c0.9,0,1.7,0.3,2.3,0.9c0.1-1.3-0.9-2-1.4-2.9
	c-0.8-0.9-1.4-1.8-2-2.9c-0.6-1.8-1.3-3.6-2.2-5.3c-0.2-0.8-0.4-1.5-0.4-2.3c-0.1-5.3-0.1-10.6,0-15.9c0.9-9,5.5-16.3,10.3-23.6
	c1.6-2.6,3.8-4.8,6.3-6.4c1.1-0.6,2.1-1.5,2.8-2.5c0.3-0.3,0.6-0.6,1-0.8c1.3-0.5,2.6-1.2,3.8-2.1c1-0.7,2-1.6,2.8-2.6
	c0.7-0.6,1.5-1,2.3-1.3c2.3-0.7,4.2-2.2,6.4-3.2c1-0.5,2-0.9,3-1.2c1.6-0.5,2.9-1.6,3.7-3c0.4-1.4,0.5-2.9,1.8-3.9
	c8.5-4.6,17.8-7.5,27.4-8.5c0.7-0.1,1.3,0,2-0.1c1.7-0.2,3.6-2.8,5,0.3c1,2.3-0.3,4.2-2.1,5.5c-4.3,3.1-7.9,6.8-9.6,12
	c-3.9,11.7-2.4,22.6,5.7,32.1c8.8,10.3,19.7,18.6,29.6,27.8c4.8,4.5,5.8,10.5,7.8,16c1.7,4.7-5.9,13.4-12.2,15
	c2.3-6.2,7.7-11.5,5.3-18.3c-1-3-4-5.4-6.7-9c0,1.8,0,2.5,0,3.2c0,1.5,0.5,3.3-1.3,3.8c-1.6,0.4-2-1.5-2.5-2.6
	c-3.5-7.8-12.4-8.2-18-13c-2.3-1.9-5.4-2.7-7.7-5.1c3.4,6.6,4.9,13.8,9.7,19.8c4.7,5.7,7.4,12.8,7.7,20.2c0.1,5,0,9.9,0,14.8
	L540,124.9z"/>
<path class="st2" d="M63.1,46.5c5-2.9,9.5-6.7,13.2-11.1c3.9-4.8,5.7-10,2.9-16.2c6.7,2.8,9.8,8.1,9.9,15.6
	c7.6-5.4,10.2-11.6,7.9-18c9.4,1.6,13.2,14.5,11.2,21.2s-5.6,12.3-11.7,16c-6.5,3.9-13.1,7.7-19.7,11.5c-1.6,1-2.7,2.8-4.4,3.6
	c-1.9,1-3.5,2.4-4.9,4c-1.1,1.1-2.2,2.7-3.6,0.3c2.8-5.5,7.9-8.6,12.9-11.6c6.8-4.1,13.6-8.2,19.9-13.1c8.3-6.4,10.2-16.7,4.7-26
	c-0.4,1.4-0.4,3.1-1.3,4C91.3,37.1,86.6,50.8,74,58.1c-5.5,3.2-9.7,7.9-14.1,12.3c-0.9,0.2-1.3-0.3-1.6-1c-0.1-4.1,2.6-6.6,5.5-8.9
	c5.1-3.9,9.9-8.2,15.3-11.8c1.7-1.1,3.4-2.3,4.2-4.1c0.7-1.5-1.1-0.2-1.4-0.7c-0.9-0.4-1.4-1.3-1.3-2.3c2.3-3.1,6.8-5.4,3.7-11
	c-3,7.5-9.5,11.7-14.4,17.2c-0.4,0.6-0.9,1-1.5,1.3c-0.6,0.3-1.2,0.5-1.8,0.6c-1.2,0.3-2.3,0.9-3.1,1.8c-0.3,0.3-0.7,0.5-1,0.7
	c-1.5,0.4-2.4,1.8-3.7,2.5c-0.5,0-0.9-0.2-1.2-0.6c-0.8-1.5-0.3-2.8,0.6-4c1.2-1.5,2.6-2.7,4.2-3.7L63.1,46.5z"/>
<path class="st3" d="M51,55.5c-4.9-7.2-9.9-14.5-14.8-21.8c-4.4-6.6-10-11.3-18.6-11c-0.6,0-1.3,0-1.6-1.4h50.7
	c-3,2-5.3,1.3-7.5,1.4c-5.7,0.2-8.1,3.8-5.4,8.8s6.1,10,9.2,14.9l-0.2,0.2c-1.8,1.3-3.5,2.7-4.9,4.4C56,53,55.1,56.8,51,55.5z"/>
<path class="st3" d="M63.9,73.3c1.5,1.2,2.1-0.2,3-0.9c1.6-1.2,3.2-2.3,4.9-3.3c1.3-0.8,2.3-2.2,4.1-1.7c1.5,6.6,0.7,13.2,0.6,19.8
	c-0.2,7.9,2.6,13.4,10.3,16c0.1,1.5-1.1,1.4-2,1.4c-11,0-21.9,0-32.9,0c-1,0-2.1,0-2-1.5c4.8-1.4,8.5-5.1,10-9.9
	c1-3.7,0.5-7.5,0.4-11.2C60.3,78.5,61.1,75.6,63.9,73.3L63.9,73.3z"/>
<path class="st4" d="M177.7,104.9c-3.4,0.7-4.9,0-4.9-4.1c0.2-18.3,0.2-36.5,0-54.8c0-3.5,0.9-4.6,4.4-4.4c5,0.3,10.1,0.1,15.3,0.1
	c-0.6,2.2-1.9,1.6-2.9,1.6c-8.7,0.3-11.4,3.1-11.4,11.9c0,14,0,28,0,42c0,1.8-0.2,3.6-0.3,5.4C178.4,103.3,178.3,104.3,177.7,104.9z
	"/>
<path class="st2" d="M352.3,103.1c13.8-19.8,27.5-39.6,41.3-59.4c1.6-2.3,3.8-2.6,5.5-1.7c2.1,1.2,0.1,2.8-0.7,4.1
	c-12.5,18.1-25.1,36.2-37.6,54.3c-0.5,0.6-1.1,1.2-1.8,1.7C357.2,105.2,355.2,105.5,352.3,103.1z"/>
<path class="st5" d="M475.1,31.9c-1.8,1.9-3.6,3.8-5.4,5.8c-5.9,3.8-7.7,10.5-11.6,15.7c-1.1,2.5-0.3,5.2-0.8,7.8
	c-0.5,1.6-0.7,3.2-0.8,4.9c-0.2,1.6,0,3.2,0.4,4.8c0.1,0.4,0.3,0.9,0.4,1.4c0.3,2.8,0.1,5.7,1.1,8.4c0.4,0.9,0.7,1.9,0.7,2.9
	c-0.2,1-0.3,2.1-1.9,1.8c-3.4-3.2-2.8-7.8-4-11.7c-0.6-5.7-0.6-11.5,0-17.3c1.9-10.7,7.7-19,16.2-25.7c3.2-2.6,6.2-5.4,9.1-8.4
	c6.6-6.5,15.4-8.4,23.6-11.4c-1.2,1.2,0.8,3.1-1,4.1c-1.2,1-2.5,1.9-3.8,2.6c-1.7,0.5-3.3,1.2-4.9,2c-1.9,0.9-3.8,2.1-5.4,3.5
	c-0.4,0.7-1.2,1-2,0.8c-1,1-2.2,1.9-3.6,2.5c-1,1.1-2.5,1.4-3.5,2.5l0.1-0.1C477.1,29.8,476.1,30.8,475.1,31.9z"/>
<path class="st4" d="M223.9,41.7c4.4,0,8.8,0.1,13.2,0c2.1,0,2.4,1.1,2.4,2.8c0,19.3,0,38.5,0,57.8c0,1.7-0.2,2.9-2.4,2.8
	c-4.4-0.1-8.8,0-13.3,0c0.2-0.8,0.3-1.3,0.4-1.3c9.8-1.7,11.4-3.7,11.4-13.6V57.6C235.6,46.5,234.5,45.1,223.9,41.7z"/>
<path class="st3" d="M332.5,43.9c-3.5,2.8-4.8,6.4-4.8,10.8c0.1,11.9,0,23.8,0,35.7c0,8.9,2,11.2,10.7,12.8c0.3,0.1,0.6,0.6,1.7,1.8
	c-5.7,0-10.6,0-15.4,0c-2.1,0-1.6-1.7-1.6-2.9c0.1-19.8,0.1-39.6,0.2-59.4c2.5-1,5-0.3,7.5-0.4C332,42.2,332.8,42.6,332.5,43.9z"/>
<path class="st6" d="M268.6,42.4c7.4-0.2,12.2,3.3,15.8,9.8c8.3,15,6.9,33.5-3.6,47c-2.6,3.4-5.7,5.3-10.1,5
	c-1.3,0.7-2.6,0.4-3.9,0.3c-0.4-0.3-0.6-0.9-0.4-1.4c0.9-1,2.1-1.6,3.4-2c9.4-3.8,12.7-11.7,13.4-20.7c0.5-7,0.6-14.1-1.8-21
	c-1.9-5.5-4.7-10.1-10.3-12.6c-1.3-0.6-2.7-1.4-3-3C268,43.2,268.3,42.7,268.6,42.4z"/>
<path class="st7" d="M308.4,103c5.1-2,7.2-5.6,7.1-11.1c-0.1-12.3-0.1-24.6,0-36.9c0-5-1.3-9-6.1-11.4c3.3-2.7,6.8-1.6,10.3-0.8
	c0.3,19.4,0,38.7,0.2,58.1c0,2.8-1,4.1-3.7,3.5S310.5,106.2,308.4,103z"/>
<path class="st8" d="M142.8,43.7c-3.9,2.5-5.2,6.1-5.2,10.5c0,12.5,0.1,25,0,37.4c-0.1,5.6,1.9,9.5,7.2,11.5
	c-1.8,1.4-9.7,2.2-10.9,1c-0.8-0.8-0.6-1.8-0.6-2.8c0-18.6,0-37.2-0.1-55.9c0-2.7,1.1-3.7,3.5-3.2C138.8,42.6,141.4,40.8,142.8,43.7
	z"/>
<path class="st8" d="M117.8,103.1c5.3-2,7.5-5.7,7.4-11.4c-0.2-12.3-0.1-24.6,0-37c0-5-1.4-9-6.4-11.1c2.8-3,6.3-1.1,9.5-1
	c1.3,0,1,1.9,1,3c-0.1,19.4,0.2,38.9-0.1,58.3C125.3,104.5,121.4,106,117.8,103.1z"/>
<path class="st7" d="M154.2,41.7c4.4,0,8.8,0.1,13.2,0c2.3-0.1,2.8,0.9,2.8,2.9c0,19.3,0,38.5,0,57.8c0,1.8-0.3,2.8-2.4,2.7
	c-4.5-0.1-9.1,0-13.7,0c0.3-1.7,1.3-1.5,2-1.5c7.3-0.6,10.4-3.7,10.5-11c0.1-12.7,0.1-25.4,0-38C166.4,46.9,164.6,45.2,154.2,41.7z"
	/>
<path class="st8" d="M242.6,104.1c-0.4-20.5-0.4-40.9,0-61.4c3.3-1.3,5.3-0.1,5.3,3.4c0.1,18.6,0.3,37.2-0.1,55.8
	c-0.1,0.7-0.3,1.3-0.6,1.8C245.7,105.1,244.2,104.7,242.6,104.1z"/>
<path class="st9" d="M389.2,44.5L348,103.3c-0.8,1.1-1.8,2.5-3.1,1.6s-0.1-2.4,0.6-3.4c13.3-18.9,26.7-37.9,40-56.8
	c0.1-1.7,0.9-2.7,2.7-2.4C389.6,42.5,390.2,43.2,389.2,44.5z"/>
<path class="st2" d="M382.3,103.2c12-3.6,14.8-14.4,19.8-24.1v25c-6.2,1.1-12.5,0.3-18.7,0.4C382.6,104.5,382.3,104,382.3,103.2z"/>
<path class="st6" d="M198.7,103.1c10.2-4.5,14.4-13.5,17.4-23.3c0.3-0.9-0.1-2.7,1.9-2.2c0.9,0.2,0.5,1.1,0.5,1.7
	c-0.8,7.2-0.3,14.4-0.3,21.6c0,2.7-0.8,3.8-3.6,3.7c-4.4-0.2-8.9,0-13.4-0.1C200.1,104.5,198.7,105,198.7,103.1z"/>
<path class="st10" d="M290.6,53.4c11.6,11.4,10.4,33.5-3.1,42.6c7.2-13.6,8-27.4,2-41.5C289.6,54,290,53.5,290.6,53.4z"/>
<path class="st7" d="M368.3,43.6c-11.2,2.6-14.8,11.9-19.4,21c0-7.5,0-15,0.1-22.5c0.4-0.1,0.9-0.2,1.4-0.2
	c4.8,0.8,9.6,0.1,14.4,0.4C366,42.3,367.9,41.2,368.3,43.6z"/>
<path class="st11" d="M410.2,115.1c0.3-0.1,0.6-0.2,0.9-0.1c0.8-0.7,0.5-1.8,1-2.6c1.5-2.4,3.5-4.4,5.9-5.9c1.1-0.8,2.6-1.4,2.6,1
	c-0.2,5.2,0.4,10.3-0.3,15.5c-4.3,1-8.7,0.2-13,0.4c-0.8,0-1.6,0-2.4,0c-2.2-1.6-0.2-2.9,0.5-4C406.7,117.6,408.6,116.4,410.2,115.1
	z"/>
<path class="st12" d="M13.1,11.9c-1,0.4-0.9,1.3-1.1,2.1c-1,2.6-2.8,4.9-5.1,6.6c-1.8,1.3-3.2,1-3.2-1.5c-0.1-4.3,0-8.6,0-12.9
	c0-1.9,0.7-2.7,2.6-2.6c3.5,0.1,7,0,10.5,0c3,0,3.4,1.4,2.1,3.7C17.5,9.4,15.5,11,13.1,11.9z"/>
<path class="st13" d="M58.2,54.5c0.3,0,0.7,0,1,0c1-1.4,2.5-2,3.9-3l-0.1,0.1c1.2-1,2.4-2.1,3.6-3.1l1.7,0.1
	c0.7,0.3,1.1,0.9,1.3,1.5c0.1,2.4-2,3.2-3.4,4.5c-4.8,4.4-9.8,8.7-9.1,15.7c0.2-0.8,1-1.3,1.8-1.2l1,1.2c-0.1,4-3.8,7-2.8,11.5
	c-5.8-5.3-6.4-15.1-1.9-21.7c1-1.4,2.8-2.4,2.7-4.5c-0.2-0.1-0.4-0.3-0.4-0.6c0-0.2,0-0.4,0.1-0.4L58.2,54.5z"/>
<path class="st14" d="M13.1,11.9c0.4-0.5,0.8-1,1.2-1.6c1.3-1.9,5.1-3.1,3.9-5.5c-1-2-4.5-0.7-6.9-0.7C4.1,4,4.1,4,4.1,11.1v10.1
	l7.8-7.2v6.9c-0.8,1.6-1.8,3.1-2.9,4.5c-1.1,1.5-2.4,3-4.3,2.6c-2.2-0.5-0.5-2.9-1.5-4.1C3.2,18,3.2,12,3,6.1C3,3.7,3.8,2.9,6.2,3
	c5.3,0.2,10.6,0.2,15.9,0.2c0.7,0.5,1.9,0.1,2.3,1.2c-0.8,3.1-4.2,4.5-5.3,7.4L13.1,11.9z"/>
<path class="st15" d="M246.6,104.1c0-19-0.1-38.1,0-57.1c0-3-0.6-4.8-4-4.3c1.7-2,4-1,5.9-0.9c6.7,0.2,13.5-1,20.2,0.6l-0.2,1.5
	c-3.2,2.1-6.8,1.2-10.2,1.3c-9.1,0.1-9.1,0.1-9.1,9.3V92c0,10.2-0.5,9.4,9.4,9.6c2.7,0,5.7-0.6,8,1.6c0,0.3,0,0.6,0,0.9
	C259.9,104.8,253.2,104.9,246.6,104.1z"/>
<path class="st16" d="M142.8,43.7c-7.3-2.7-9-1.6-9,5.5c0,16.1,0,32.2,0,48.4c0,6.7,0,6.7,6.8,6.5c1.4,0,3,0.4,4.1-1
	c2.5,0,2.5,0,5.6,1.5c-5.9,0.9-11,0.3-16.2,0.4c-1.8,0-1.4-1.5-1.4-2.6c0-19.3,0-38.6,0-57.9c0-1.7,0.2-2.8,2.4-2.8
	c4.8,0.1,9.5,0,15.5,0C147.5,44,145,43,142.8,43.7z"/>
<path class="st17" d="M198.7,103.1c5.6,2.2,11.3,0.6,17,0.9c2.1,0.1,2-1.8,2-3.3c0-5.6,0-11.1,0-16.7c0-1.6-0.5-3.3,0.8-4.7
	c0.1,7.6,0,15.2,0.2,22.7c0.1,2.4-0.7,3.1-3.1,3.1c-12.6-0.2-25.2-0.2-37.9-0.2l0.2-2.3C184.8,104.4,191.7,103.3,198.7,103.1z"/>
<path class="st18" d="M308.4,103c2.8,2.1,6.1,1,9.1,0.9c2.8-0.1,1.9-2.7,1.9-4.3c0-19,0-37.9,0-56.9c-0.3-0.2-0.4-0.4-0.3-0.6
	c0.1-0.1,0.2-0.2,0.4-0.2c1.9,0.7,1,2.2,1,3.4c0.1,18.6,0,37.2,0.1,55.8c0,3.3-0.9,4.4-4.2,4.1c-4.2-0.4-8.6,0.6-13.4-0.7
	C304.9,102.4,306.8,103.4,308.4,103z"/>
<path class="st19" d="M128.8,104.1V50.2c0-8.2-1.8-9.4-10-6.6l-5.6-0.6v-1.3c5.1,0,10.2,0,15.3,0c1.7,0,1.6,1.4,1.6,2.5
	c-0.1,20-0.2,39.9-0.3,59.9c-0.2,0.3-0.5,0.4-0.8,0.2C128.9,104.2,128.9,104.2,128.8,104.1z"/>
<path class="st20" d="M382.3,103.2c6.5,2.1,13.2,0.4,19.8,0.9c-0.2,1.5-1.5,1-2.3,1c-15.2,0-30.4,0-45.5-0.1c-0.6,0-4.4,1.6-1.9-1.9
	c2.5,1.8,4.8,1.6,6.7-0.9c0.3,1.3,1.4,1.3,2.4,1.2C368.4,103.3,375.4,103.3,382.3,103.2z"/>
<path class="st21" d="M420.2,122.9v-16.8c-1.4-1.3-1.3-3-1.4-4.7s0-3.6,0-5.4c-0.2-1.2,0.5-2.5-0.1-3.6c-3.1,0.5-2.4,6.2-6.9,4.7
	c-1.6-5.8,2.3-8.8,6.3-11.6c1.5-0.2,3-0.5,3,1.9c-0.1,12-0.1,24-0.2,36c0,0.2-0.5,0.3-0.8,0.4c-0.4-0.2-0.5-0.4-0.3-0.6
	S420.1,122.9,420.2,122.9z"/>
<path class="st5" d="M50,103.1c0.7,0.8,1.7,1.1,2.7,1h31.6c1,0.1,2-0.2,2.7-0.9c2.9,0.2,5.9-0.5,8.8,0.5v1.3H47
	c-1.6-0.5-3.3-0.5-4.9,0c-1.9-1.2-0.8-1.7,0.5-1.7C45,103.1,47.5,103.1,50,103.1z"/>
<path class="st22" d="M328.4,123.8c-6.2,0.3-6.2,0.2-6-5.6c0.1-2.7,1.2-3.4,3.6-3.2s4.9,0.1,7.4,0.1
	C333.4,118.9,328.9,120.2,328.4,123.8z"/>
<path class="st23" d="M368.3,43.6c-3.4-2-7.1-0.4-10.7-0.9c-2.4-0.3-5,0.8-7.2-0.8l38.1-0.2c4,0,2.2,1.5,0.8,2.8
	c-1.4-4.1-2.5-0.7-3.7,0.1c-3.5-2.7-7.5-0.8-11.3-1.2C372.3,43.3,370.3,43.4,368.3,43.6z"/>
<path class="st24" d="M89.9,3.2h6c2.8,1.9,0.2,3.4-0.5,4.9c-0.9,1.8-2.7,2.9-4.5,3.7h-7C84.1,7.7,88.5,6.5,89.9,3.2z"/>
<path class="st25" d="M3.3,23.9c1.3,0.7,0.2,3,1.6,3.2s2.7-1,3.3-2.5c0.7-1.7,2.1-3,3.8-3.6v6.9c-0.7,1.3-1.6,2.5-2.7,3.5
	c-1.4,1.5-2.5,4.1-4.9,3.3c-1.9-0.6-0.1-3.3-1.2-4.8L3.3,23.9z"/>
<path class="st26" d="M418.2,85.4c-0.2,1.7-1.2,3.1-2.7,3.9c-3,2-3.8,4.6-3.1,7.9c1.4,1.7,1.1,3.8,1.2,5.8c0.1,1.7,0,3.4,0,5.1
	c0,1.7-0.4,3.4-1.2,4.9c-0.1,0.8-0.3,1.7-1.3,2c0.9-7.9,0.3-15.8,0.4-23.7C411.7,85.1,411.6,85.1,418.2,85.4z"/>
<path class="st27" d="M3.3,29.8c1.3,1.1,0.5,2.8,1.1,4.3c3.4-1.1,3.9-5.6,7.6-6.3v5c-1,2.4-2.1,4.7-4.2,6.4c-1,0.8-2,2-3.4,1.5
	s-0.6-2-0.7-3c0-0.6-0.1-1.3-0.4-1.9L3.3,29.8z"/>
<path class="st28" d="M24,4l-2-0.8h7c4.1,1.1,4.6,2.6,2.3,5.9c-1,1.1-2.1,2-3.4,2.8h-6c-0.7-2.4,1-3.9,2.4-5.2S24.9,4.8,24,4z"/>
<path class="st29" d="M395.3,115.1h5c1.1,1.3,0.3,2.6-0.6,3.3c-2,1.7-1.4,3.4-0.5,5.3h-7c-2.1-0.3-2.8-1.5-1.8-3.4
	C391.6,118.2,392.8,116.1,395.3,115.1z"/>
<path class="st30" d="M90.9,11.9c1.5-3,5.8-4.4,5-8.7h5c1.4,4.2-0.8,6.6-4,8.7L90.9,11.9z"/>
<path class="st31" d="M89.9,3.2c1.4,2.7-1.4,3.2-2.4,4.6c-1.1,1.4-2.3,2.7-3.6,4H79c-0.1-3.9,4.6-5,5-8.6L89.9,3.2z"/>
<path class="st32" d="M389.3,123.8h-7c-2.1-0.4-2.9-1.5-1.4-3.2c1.6-1.9,2.8-4.3,5.4-5.4h5C391.5,118.2,387.4,120.3,389.3,123.8z"/>
<path class="st32" d="M38,11.8h-6c0.1-3.6,3.4-5,5.1-7.3C36.3,4.6,35,5,35,3.2h5c4.2,1.2,4.4,1.7,1.8,4.8
	C40.7,9.5,39.4,10.7,38,11.8z"/>
<path class="st25" d="M399.2,123.8c-3.3-1-4.9-2.3-1.3-5c1.1-0.9,2.3-1.9,2.3-3.6h5c0.7,1.8-0.4,3.1-1.4,4.2
	c-1.3,1.5-0.8,2.5,0.4,3.6h2c0.3,0.2,0.4,0.4,0.3,0.6s-0.2,0.3-0.3,0.3L399.2,123.8z"/>
<path class="st33" d="M51,11.9h-5c-0.3-3.6,4-5.1,4-8.6h5c2.2,0.4,2.6,1.5,1.5,3.4C55.3,8.9,53.4,10.8,51,11.9z"/>
<path class="st34" d="M345.4,123.8h-5c-2.2-1-1.7-2.5-0.7-4c1.4-2,3.4-3.6,5.7-4.6h5C350.3,118.9,346,120.3,345.4,123.8z"/>
<path class="st35" d="M35,3.2c2.2,0.8,3,2.1,1.2,4c-1.4,1.5-2.8,3.1-4.2,4.6h-4c0-1.7,1.5-2.4,2.4-3.4c2.4-2.6,1.3-4-1.4-5.2L35,3.2
	z"/>
<path class="st36" d="M3.3,35.8c1.3,1.1,0.5,2.8,1.1,4.3C8,38.6,9.3,35,12,32.8c0.1,1.1,0.2,2.3,0.2,3.4c0,5.3-2.3,7.1-7.5,5.4
	C1.6,40.6,3.5,37.8,3.3,35.8z"/>
<path class="st37" d="M328.4,123.8c-1.5-2-0.2-3.2,1.1-4.4s2.6-2.8,3.9-4.2h4c0.6,4.2-2.6,6.2-5,8.7L328.4,123.8z"/>
<path class="st38" d="M50,3.2c0.4,0.9,2.7,1.2,0.7,3C49,8,47.4,9.9,46,11.9h-5c-0.3-2.9,2-4.5,3.9-5.6c2.4-1.4-0.2-2.1,0.1-3.1
	L50,3.2z"/>
<path class="st39" d="M386.3,115.1c-1.3,2-2.8,3.9-4.4,5.7c-1.5,1.4-0.6,2.1,0.4,3h-5c-2.5-1.4-1-3.1-0.1-4.5c1-1.6,2.1-3.3,4.1-4.1
	L386.3,115.1z"/>
<path class="st40" d="M63,11.8h-5c0.2-3.7,3.8-5.5,5-8.6h4c2.5,1.2,1.5,2.8,0.5,4.3C66.3,9.3,65.1,11,63,11.8z"/>
<path class="st41" d="M404.3,122.9c-1.2-0.2-2.9,0.7-3.5-1c-0.4-1.3,1.1-1.8,1.7-2.8c0.9-1.3,1.8-2.7,2.7-4.1h5
	C409.6,118.7,405.3,119.6,404.3,122.9z"/>
<path class="st42" d="M45,3.2c1.2,0.9,3.6,1.3,0.9,3.4c-1.8,1.6-3.4,3.4-4.9,5.2h-3c0.2-1.8,1.2-3.5,2.8-4.5C44,5.2,42.2,4.3,40,3.2
	L45,3.2z"/>
<path class="st43" d="M357.3,115.1h4c0.1,3.9-3.4,5.7-5,8.6h-4C350.5,118.9,354,117,357.3,115.1z"/>
<path class="st36" d="M389.3,123.8c-2.3-1-3.5-2.1-1.2-4.4c1.2-1.3,2.2-2.8,3.2-4.2h4c-1.2,1.7-2.4,3.4-3.6,5.1
	c-1,1.4-1,2.6,0.5,3.6L389.3,123.8z"/>
<path class="st44" d="M345.4,123.8c-1.5-2-0.2-3.1,1.1-4.4s2.6-2.8,3.9-4.2h3c0.5,3.7-2.7,5.7-4,8.6L345.4,123.8z"/>
<path class="st45" d="M51,11.9c1.6-2,3.1-4.1,4.8-6C57.1,4.4,55.5,4,55,3.2h4c1.6,0.4,2.9,1,1.6,3c-1.3,2.1-2.8,4-4.6,5.6L51,11.9z"
	/>
<path class="st46" d="M367.3,115.1h4c0.7,3.8-3.5,5.4-4,8.6h-3c-2.2-0.5-3.3-1.6-1.8-3.8C363.8,118.1,365.1,116.2,367.3,115.1z"/>
<path class="st47" d="M63,11.8c0.8-3.1,5.8-4.3,4-8.6h4c2.4,1.2,1.6,2.8,0.4,4.3c-1.3,1.6-2.8,3.1-4.4,4.3H63z"/>
<path class="st48" d="M24,4l3.8,0.2c-2,2.9-4.8,4.6-5.8,7.6h-3C17.8,7.4,22.9,7,24,4z"/>
<path class="st49" d="M374.3,115.1h4c1.3,1.9-0.3,3-1.4,4.1c-1.2,1.3-2.4,2.6-2.7,4.5h-3c-2.6-0.4-2.7-2-1.5-3.8
	S372.1,116.1,374.3,115.1z"/>
<path class="st50" d="M332.4,123.8c0.5-3.5,4.4-5.2,5-8.7h4c0.6,4.2-3.7,5.6-5,8.7H332.4z"/>
<path class="st51" d="M67,11.8c0.1-2.2,1.9-3.2,3.2-4.5s2-2.5,0.8-4.1h3c2.2,0.4,2.6,1.5,1.5,3.4c-1.2,2.3-3.2,4.2-5.6,5.2L67,11.8z
	"/>
<path class="st52" d="M356.3,123.8c-0.3-4,3.8-5.5,5-8.6h3c0.8,3.8-3.7,5.3-4,8.6L356.3,123.8z"/>
<path class="st53" d="M336.4,123.8c-1.4-2.4,1.1-3,2-4.3c1-1.5,2-2.9,3-4.4h4c-1.4,1.5-2.7,3.1-4.2,4.5c-1.3,1.2-2,2.4-0.8,4.1
	L336.4,123.8z"/>
<path class="st54" d="M349.3,123.8c-0.6-3.8,3.2-5.5,4-8.6h4c-1.9,2.8-5.3,4.6-5,8.6H349.3z"/>
<path class="st44" d="M70,11.9c1.6-2,3.1-4.1,4.8-6C76,4.4,74.5,4,74,3.2h4c2.2,1,1.7,2.5,0.7,4c-1.4,2-3.4,3.6-5.7,4.6H70z"/>
<path class="st38" d="M374.3,123.7c-0.8-1-2.7-1.6-0.4-3.2c1.9-1.3,4.1-2.7,4.4-5.4h3c-0.5,3.2-5.4,4.5-4,8.6H374.3z"/>
<path class="st55" d="M374.3,115.1c-1.1,1.6-2.1,3.2-3.3,4.7s-1.6,2.8,0.3,4h-4c-1.3-1.8-0.3-2.9,0.9-4.2c1.1-1.4,2.2-2.9,3.1-4.4
	L374.3,115.1z"/>
<path class="st56" d="M73,11.9c1.4-1.5,2.7-3.1,4.2-4.5c1.3-1.2,2-2.4,0.8-4.1h3c2.4,1.2,1.7,2.8,0.4,4.2s-2.5,3.3-4.4,4.4H73z"/>
<path class="st57" d="M56,11.8c0.6-2.2,1.8-4.1,3.4-5.6c1.4-1.4,0.6-2.1-0.4-3h4c0.8,4.3-3.5,5.7-5,8.6L56,11.8z"/>
<path class="st15" d="M246.6,104.1h20l4.1,0.1c-6.9,2.1-13.9,0.6-20.8,0.8c-2.4,0.1-5.1,1.1-7.3-0.9L246.6,104.1z"/>
<path class="st58" d="M360.3,123.8c-1.4-4.1,3.5-5.4,4-8.6h3c-0.8,1.8-1.9,3.5-3.4,4.8c-2,1.6-1.1,2.7,0.4,3.8H360.3z"/>
<path class="st59" d="M77,11.9c0.8-1.8,1.9-3.5,3.4-4.8c1.2-0.7,1.6-2.2,0.9-3.4c-0.1-0.1-0.2-0.3-0.3-0.4h3c1.5,2,0.2,3.2-1.1,4.4
	s-2.6,2.8-3.9,4.2L77,11.9z"/>
<path class="st60" d="M63.9,73.3c-3.3,4.2-3,9-3,13.9c0,2,0.8,4.2-0.9,6c0-4.7,0-9.4,0-14.1C60.1,76.3,60.7,74,63.9,73.3z"/>
<path class="st20" d="M332.5,43.9c-2.8-2.4-6.1-0.7-9.1-1.2c5.2-2.1,10.5-0.5,15.8,0.1L332.5,43.9z"/>
<path class="st61" d="M96.9,11.9c0.9-3.1,4.8-4.8,4-8.7C103.4,9.9,102.5,11.9,96.9,11.9z"/>
<path class="st62" d="M319.4,41.9c0,0.3,0,0.6-0.1,0.8c-3.3,0.3-6.8-1.1-9.9,0.9l-5.8-0.8l0.1-1L319.4,41.9z"/>
<path class="st63" d="M128.8,104.1h1c-5.6,2.3-11.2,0.3-16.8,0.5c1.3-2.2,3.2-1.3,4.8-1.6C121.3,105.2,125.2,103.6,128.8,104.1z"/>
<path class="st62" d="M457.1,85.3c0.9-0.5,1-1.4,1.2-2.2c1.4-0.1,1.8,1.1,2.2,2c0.6,1.4,2.1,2.3,2.2,4c0,0.4-0.2,0.8-0.5,1.2
	c-0.9,0.5-0.9,1.5-1.2,2.3C459.7,90.1,458.4,87.7,457.1,85.3z"/>
<path class="st64" d="M453,56.3c0,5.8,0,11.5,0,17.3C451.9,67.9,451.9,62,453,56.3z"/>
<path class="st65" d="M51,55.5c3.4-0.2,4.2-3.8,6.9-5c0.2-0.3,0.6-0.4,0.8-0.2c0.1,0,0.1,0.1,0.2,0.2c-0.8,1.2-1.1,2.6-0.8,3.9
	l-0.2,0.3c-2-0.3-2.9,2.7-5.2,1.8C52,56.6,51.3,56.5,51,55.5z"/>
<path class="st41" d="M406.3,123.8c0-0.3,0-0.6,0-0.8h14v0.8H406.3z"/>
<path class="st3" d="M52.8,56.6c1.7-0.8,3-2.5,5.2-1.8c0,0.3,0,0.6,0,0.9c-1.1-0.1-1.6,0.6-2.2,1.4C54.5,58.9,53.5,58.4,52.8,56.6z"
	/>
<path class="st62" d="M464,96.2c2.7,0.1,3.9,2,5,4.1C466.8,99.7,465.5,97.8,464,96.2z"/>
<path class="st66" d="M76,67.4l-4,2c-0.3-0.2-0.4-0.4-0.3-0.7s0.2-0.3,0.3-0.3c1.6-1.2,2.8-2.9,5-3L76,67.4z"/>
<path class="st1" d="M290.6,53.4l-1,1.2l-2-2.6C289.3,51.1,290,52.1,290.6,53.4z"/>
<path class="st5" d="M42,104.9c1.4-1.2,3.5-1.2,4.9,0H42z"/>
<path class="st67" d="M457.2,52.6c2.8-4.1,4.4-9,8-12.6c1.1-1.4,2.8-2.2,4.6-2.3c-4.2,7.2-9.2,14.2-10.6,22.7
	c-0.3,0.8-0.7,1.4-1.7,1.4c-0.5-0.3-0.7-0.8-0.7-1.3C456.9,57.8,456.1,55.2,457.2,52.6z"/>
<path class="st68" d="M457.4,81.3c-1.1-3.2-1.5-6.6-1.2-10c-0.2-2.1-0.2-4.1,0-6.2c0.2-1,0.5-2.4,2.1-1.4c0.5,4.9-0.4,9.9,0.5,14.9
	l0.1,1.8C458.9,81,458.2,81.4,457.4,81.3z"/>
<path class="st66" d="M459,78.6c-1.8-4.9-0.3-10.1-1-15.1c-0.7-0.4-1.3-0.9-0.7-1.8l1.8-1.3C459,66.4,459,72.5,459,78.6z"/>
<path class="st67" d="M487,23.1c0.1-3,2.8-3.2,4.7-4.4c1-0.1,2.4-0.8,2.3,1.2C491.6,20.7,489.9,23.1,487,23.1z"/>
<path class="st69" d="M462.2,90.2l0.1-1.1c0.3-0.6,0.1-1.6,1-1.9c1.3,2,3,3.8,2.9,6.5C464,93.2,463.1,91.7,462.2,90.2z"/>
<path class="st70" d="M457.4,81.3l1.7-1c2.3,0.9,2,3,2.3,4.9c-0.3,0.4-0.9,0.4-1.2,0.1c0,0,0,0-0.1-0.1c-0.6-0.8-1.2-1.5-1.8-2.3
	C458.2,82.4,456.9,82.2,457.4,81.3z"/>
<path class="st71" d="M497.1,16.9c1-1.4,2.5-1.5,3.9-1.9c-0.1,2.6-2.7,2.4-4,3.6c-0.5-0.4-0.5-1.1-0.1-1.6C497,17,497,17,497.1,16.9
	z"/>
<path class="st72" d="M481.1,25.8c1-1.2,2.4-1.9,4-1.9c0.3,2.1-1.4,2.5-2.8,3.1C481.2,27.2,480.9,26.8,481.1,25.8z"/>
<path class="st73" d="M497.1,16.9c0,0.6,0,1.1-0.1,1.7l-2.9,1.2c-0.5-1-1.5-0.9-2.3-1.2C493.3,17.6,495.2,17,497.1,16.9z"/>
<path class="st74" d="M460.1,85.3l1.3-0.1c1.3,0,1.4,1.2,1.9,1.9c-0.1,0.8-0.1,1.6-1,1.9C461.5,87.9,460.2,86.9,460.1,85.3z"/>
<path class="st75" d="M481.1,25.8l1.2,1.2c-1,1.4-2.3,2.4-4.2,1.9C477.8,26.7,479.5,26.3,481.1,25.8z"/>
<path class="st76" d="M550,80.4c-1.7,0-3.2-1-3.9-2.4C548.3,77.7,549.6,78.2,550,80.4L550,80.4z"/>
<path class="st77" d="M550,80.4c1.3-0.1,2.3,0.3,2.5,1.8c0,0.2-0.4,0.6-0.6,0.6C550.4,82.6,550,81.7,550,80.4L550,80.4z"/>
<path class="st72" d="M475.1,31.9c-0.3-2.3,1.1-3,3.1-3.2C477.8,30.4,477,31.7,475.1,31.9z"/>
<path class="st78" d="M58.9,69.2l-2.6,3.5c-2-8,2.3-13,7.4-17.7c1.9-1.7,4.7-2.5,5.4-5.4c0.7-1,1.9-1.7,2.6-2.8
	c1.1-1.2,2.5-2.1,4.1-2.4c2-0.4,4-1.4,6.1-1.4l4.4-2.8c-0.8,5.7-4.9,7.7-8.2,10.5c-6.3,5.4-14.2,9.2-18.6,16.6
	C59.2,68,59,68.6,58.9,69.2z"/>
<path class="st79" d="M75.9,45.7c-1.7,0-2.6,1.5-4,2c-0.8,0.8-2.1,0.8-2.9,0.1c-0.5-1.7,1-2.1,1.9-2.9c5.4-4.7,11.3-9,12.6-16.9
	c5.3,4.6,4.2,9.9-2.5,13.8C79.7,43.6,77.3,44.1,75.9,45.7z"/>
<path class="st80" d="M75.9,45.7c0.1-3.3,3.1-3,5.1-3.9l0.9,1.4C80.2,44.7,78.1,45.3,75.9,45.7z"/>
<path class="st81" d="M72,68.4v1c-1.5,1.3-2.9,2.8-5,3C67.9,70.2,70,69.4,72,68.4z"/>
<path class="st82" d="M63,51.5c-0.7,1.7-1.8,3-3.9,3C58.9,51.6,60.9,51.5,63,51.5z"/>
<path class="st83" d="M59,50.6h-1c1.3-1.8,2.5-3.7,5-3.9C62.1,48.3,60.7,49.7,59,50.6z"/>
<path class="st1" d="M68.9,47.8l2.9-0.1c0.2,2.1-1.2,2.2-2.8,2l-0.8-1L68.9,47.8z"/>
<path class="st84" d="M66.5,48.6c-0.1,2.3-1.8,2.8-3.6,3.1C62.8,49.1,64.8,49.1,66.5,48.6z"/>
<path class="st85" d="M457.3,61.6c0.2,0.6,0.5,1.2,0.7,1.8c-2,2.3,0.4,5.6-1.8,7.9l-0.3,0.1c-0.9-1.6,0.4-3.5-0.9-4.9
	c0-1.7-0.5-3.6,1-5c0.3-0.4,0.6-0.5,1,0L457.3,61.6z"/>
<path class="st86" d="M457.1,61.5c-0.3,0-0.7,0-1,0c0.4-3-0.4-6,1-8.9V61.5z"/>
<path class="st64" d="M455.1,66.5c1.2,1.5,0.9,3.2,0.9,4.9C454.6,70,455.1,68.2,455.1,66.5z"/>
<path class="st87" d="M412.4,113v-4.9c1.4-1.9,2.7-3.8,4.2-5.6c0.9-1.1,1.7-2.7,3.6-1.4v5L412.4,113z"/>
<path class="st88" d="M412.4,103.1c0-2,0-3.9,0-5.9c2.9-1.9,3.6-6,7.3-7.2c0.9,1.7,0.3,3.5,0.5,5.2
	C417.9,98.1,417.1,102.5,412.4,103.1z"/>
<path class="st89" d="M412.4,103.1c3.4-1.8,4.2-6.2,7.8-7.9v5.9c-3.9,0.8-3.5,6.5-7.8,7C412.4,106.4,412.4,104.7,412.4,103.1z"/>
<text transform="matrix(1.37 0 0 1 25.5004 133.3701)" class="st90 st91">B</text>
<text transform="matrix(1.37 0 0 1 52.5439 133.3701)" class="st90 st91">a</text>
<text transform="matrix(1.37 0 0 1 75.5327 133.3701)" class="st90 st91">y</text>
<text transform="matrix(1.37 0 0 1 98.5078 133.3701)" class="st90 st91">an </text>
<text transform="matrix(1.37 0 0 1 157.1435 133.3701)" class="st90 st91">K</text>
<text transform="matrix(1.37 0 0 1 183.6396 133.3701)" class="st90 st91">ua</text>
<text transform="matrix(1.37 0 0 1 233.1376 133.3701)" class="st90 st91">f</text>
<text transform="matrix(1.37 0 0 1 247.8788 133.3701)" class="st90 st91">ö</text>
<text transform="matrix(1.37 0 0 1 273.58 133.3701)" class="st90 st91">r</text>
<text transform="matrix(1.37 0 0 1 290.3759 133.3701)" class="st90 st91">ü</text>
</svg>
