<svg xmlns="http://www.w3.org/2000/svg" xmlns:xlink="http://www.w3.org/1999/xlink" viewBox="0 0 409.64 126">
<defs>
<style>.cls-1{filter:url(#Y);}.cls-2{fill:url(#Adsız_degrade_102);}.cls-3{fill:url(#Adsız_degrade_87);}.cls-4{filter:url(#I);}.cls-5{filter:url(#L);}.cls-6{filter:url(#D);}.cls-7{filter:url(#I-2);}.cls-8{filter:url(#Z);}.cls-9{fill:url(#Adsız_degrade_114);filter:url(#filter);}.cls-10{fill:url(#Adsız_degrade_114-2);filter:url(#filter-2);}</style>
<filter id="Y"><feOffset input="SourceAlpha"/>
<feGaussianBlur stdDeviation="3" result="blur"/>
<feFlood/><feComposite operator="in" in2="blur"/>
<feComposite in="SourceGraphic"/>
</filter><linearGradient id="Adsız_degrade_102" x1="57.43" y1="47.23" x2="94.16" y2="43.48" gradientUnits="userSpaceOnUse"><stop offset="0" stop-color="#b78004"/><stop offset="0.03" stop-color="#ba860e"/><stop offset="0.07" stop-color="#c29528"/><stop offset="0.14" stop-color="#d0ae52"/><stop offset="0.21" stop-color="#e2d18c"/><stop offset="0.29" stop-color="#fafed6"/><stop offset="0.29" stop-color="#fafed7"/><stop offset="0.5" stop-color="#b78004"/><stop offset="0.51" stop-color="#bd8b16"/><stop offset="0.58" stop-color="#d7bc68"/><stop offset="0.64" stop-color="#eadfa4"/><stop offset="0.68" stop-color="#f6f6c9"/><stop offset="0.7" stop-color="#fafed7"/><stop offset="0.7" stop-color="#f6f6ca"/><stop offset="0.73" stop-color="#e7db9c"/><stop offset="0.76" stop-color="#dac273"/><stop offset="0.79" stop-color="#cfae51"/><stop offset="0.82" stop-color="#c69d35"/><stop offset="0.86" stop-color="#c0901f"/><stop offset="0.89" stop-color="#bb8710"/><stop offset="0.94" stop-color="#b88207"/><stop offset="1" stop-color="#b78004"/></linearGradient><linearGradient id="Adsız_degrade_87" x1="66.28" y1="44.9" x2="79.01" y2="58.52" gradientUnits="userSpaceOnUse"><stop offset="0" stop-color="#c17d00"/><stop offset="0.02" stop-color="#cb9324"/><stop offset="0.08" stop-color="#e3cc81"/><stop offset="0.12" stop-color="#f3f0bb"/><stop offset="0.14" stop-color="#f9fed2"/><stop offset="0.29" stop-color="#c68a15"/><stop offset="0.5" stop-color="#f9fed2"/><stop offset="0.51" stop-color="#f5f5c3"/><stop offset="0.57" stop-color="#e3cb7e"/><stop offset="0.63" stop-color="#d4a948"/><stop offset="0.68" stop-color="#ca9121"/><stop offset="0.72" stop-color="#c38209"/><stop offset="0.74" stop-color="#c17d00"/><stop offset="0.8" stop-color="#d1a23c"/><stop offset="0.87" stop-color="#e2c97c"/><stop offset="0.93" stop-color="#eee6ab"/><stop offset="0.97" stop-color="#f6f7c7"/><stop offset="1" stop-color="#f9fed2"/></linearGradient><filter id="I"><feOffset input="SourceAlpha"/><feGaussianBlur stdDeviation="3" result="blur-2"/><feFlood/><feComposite operator="in" in2="blur-2"/><feComposite in="SourceGraphic"/></filter><filter id="L"><feOffset input="SourceAlpha"/><feGaussianBlur stdDeviation="3" result="blur-3"/><feFlood/><feComposite operator="in" in2="blur-3"/><feComposite in="SourceGraphic"/></filter><filter id="D"><feOffset input="SourceAlpha"/><feGaussianBlur stdDeviation="3" result="blur-4"/><feFlood/><feComposite operator="in" in2="blur-4"/><feComposite in="SourceGraphic"/></filter><filter id="I-2"><feOffset input="SourceAlpha"/><feGaussianBlur stdDeviation="3" result="blur-5"/><feFlood/><feComposite operator="in" in2="blur-5"/><feComposite in="SourceGraphic"/></filter><filter id="Z"><feOffset input="SourceAlpha"/><feGaussianBlur stdDeviation="3" result="blur-6"/><feFlood/><feComposite operator="in" in2="blur-6"/><feComposite in="SourceGraphic"/></filter><linearGradient id="Adsız_degrade_114" x1="4.36" y1="4.44" x2="40.9" y2="44.5" gradientUnits="userSpaceOnUse"><stop offset="0" stop-color="#f9fbcd"/><stop offset="0.49" stop-color="#c38200"/><stop offset="1" stop-color="#f6f5c3"/></linearGradient><filter id="filter" x="0" y="0" width="60" height="65" filterUnits="userSpaceOnUse"><feOffset input="SourceAlpha"/><feGaussianBlur stdDeviation="3" result="blur-7"/><feFlood/><feComposite operator="in" in2="blur-7"/><feComposite in="SourceGraphic"/></filter><linearGradient id="Adsız_degrade_114-2" x1="319.96" y1="117.09" x2="282.06" y2="83.44" xlink:href="#Adsız_degrade_114"/><filter id="filter-2" x="262" y="60" width="60" height="66" filterUnits="userSpaceOnUse"><feOffset input="SourceAlpha"/><feGaussianBlur stdDeviation="3" result="blur-8"/><feFlood/><feComposite operator="in" in2="blur-8"/><feComposite in="SourceGraphic"/></filter></defs><g id="katman_2" data-name="katman 2"><g id="katman_5" data-name="katman 5"><g id="Y-2" data-name="Y" class="cls-1"><path d="M80.21,21.35l-.14,1.43-.38,1.54L79,26.21l-.83,1.72-1.1,1.83-1.45,1.75L73,34.27,70.53,36.4l-3.37,2.7-5.09,3.79-2.55,2-.83.63-2.33,1.79-.66.81-.86.87-.48.41-1.51,1.83-.38.41-.24.2-2.4-3.1L35,29.48Q31.28,24.59,28.33,23a17.49,17.49,0,0,0-8-1.72v-.92H52.86v.92c-3.32.11-5.44.72-6.37,1.85a5.12,5.12,0,0,0-1.4,3.2c0,1.15.8,2.77,2.42,4.85L57.52,44l2.9-1.79,2.2-1.51L64.93,39l2.64-2,2.11-1.51,1.71-1.46s2.31-1.86,2.69-2.33,1.65-1.83,1.65-1.83a28,28,0,0,0,2.34-3.18,21.17,21.17,0,0,0,2-6.4C80.1,19.37,80.21,21.35,80.21,21.35Z"/><path d="M105.09,28a27.23,27.23,0,0,1-.22,3.36,11.3,11.3,0,0,1-.57,2.52,35,35,0,0,1-1.45,3.28l-1,1.63-2,2.54L98.11,43,96.6,44.26s0,.17-1.08.9-3.21,2.11-3.21,2.11L89.4,49l-3,1.86L83.6,52.59l-1.89,1.13-2.85,1.71L76.35,57c-2.76,1.68-5.48,3.41-8.24,5.08l-.39.26V90.1a7.33,7.33,0,0,0,3,6.37A12.37,12.37,0,0,0,77.8,98.7v.87h-29V98.7a11.31,11.31,0,0,0,7-2.17c1.72-1.38,2.58-3.53,2.58-6.43V70.31a10.82,10.82,0,0,1,3.06-5.16c2.45-2.23,3.48-3.07,3.48-3.07l2-1.54.8-.54,1.3-.88,5.62-3.63,5-2.88,5.21-3.09,5-2.92,2.2-1.25,3.7-2.51s1.85-1.46,2.79-2.42,2-2.33,2-2.33a13.65,13.65,0,0,0,1.23-2,12.28,12.28,0,0,0,1-2.4,11.75,11.75,0,0,0,.66-2.27c.08-.73.25-2.38.25-2.38V27.44l-.12-1.37L103.41,24l-.61-2.73-.52-1.63a26,26,0,0,0-1.19-3.31,17.72,17.72,0,0,1,1.81,3.18c.79,2,1.4,3.74,1.4,3.74l.42,1.92A9.48,9.48,0,0,1,105.09,28Z"/><path class="cls-2" d="M98.81,14.66l-.15,1.27-.28,1.37-.45,1.58-.56,1.42-.82,1.88-.82,1.42L94.6,25.36l-.74,1-1,1.23-1.39,1.36L90.1,30.2l-2,1.58-.95.68-.65.43-1.48,1-.16.11-2.06,1.27-2.42,1.39L77.8,38.1l-2.4,1.34-4,2.42-1.6,1-1.35.76-1.21.59-1.09.73L65,45.62l-1.17.84-1.73,1.2-1,.9-.25.23-.74.62-1.13,1-.59.67-.72.82-.47.63-.62.73-.53.86-.58,1-.25.52-.16.33-.33.73-.29.71-.24.84L54,59l-.18,1.23-.13,1.1,0,.79.08,1.27.13.89.16.95.19,1.27.09.27,0,.08,2,8.85-.86-1.28L54.62,73l-.41-.87L53.59,71l-.39-1-.37-.94-.2-.64-.21-.68-.33-.87-.26-1.18-.21-1.09-.12-1v-.83l-.1-.94v-.38a9.77,9.77,0,0,0,.14-1c0-.25.2-1,.2-1.34s.41-1.28.41-1.72a5.1,5.1,0,0,1,.56-1.47l.47-1,.61-1,.08-.14.6-.94,1.09-1.44,1.11-1.2,1.67-1.61L60,47.16l.36-.28,1.74-1.26,2.2-1.45,3.29-1.85,1.84-1.07,4.11-2.19,4.23-2.24,3.35-2,2.11-1.25,1.56-1,.54-.31,0,0,1.17-.79.1-.06.78-.59,1.17-.91,1.83-1.45.94-.89.8-.78.91-1,1.35-1.53L95.34,23l.82-1.19.39-.68L97.12,20l.54-1.14.45-1.3.29-1,.26-1.13Z"/><path class="cls-3" d="M86.53,30.08v2.81l-.12,1.26-.27,1.31-.76,2-.62,1.13-.9,1.47-.93,1.25-1,1.22-.74.78-.76.69-1.15,1-1.58,1.31-3,2.13-2.38,1.81-1.79,1.16-1.95,1.44L66.36,54.5l-.38.31-1.57,1.27-1.13,1-.61.64-1.52,1.44-1,1.18-1.23,1.58-.56.82-.24.37-.66,1.23-.53,1.18-.47,1.39L56.08,68,56,69l-.14,1.16v1.6L56,73.51l.25,1.12.12,1.05-2-8.85,0-.08.15-.44L55,64.69l.59-1.16,1.07-2,1.55-2,.18-.23,1.52-1.63,2-1.9,1.62-1.44.66-.5.66-.51,1.43-1.11,2.24-1.61,1.78-1.23,1.24-.79,1.5-1,1.51-1,1.2-.83,1.15-.94L78,44l1.09-1,1.16-1.07.9-1.06.7-.82,1-1.46,1-1.61.55-1.06a10,10,0,0,1,.58-1.65c0-.11.09-.22.12-.32a6,6,0,0,0,.31-1.61h0l.08-1-.06-2-.25-1.58-.26-1-.46-1.16-.72-1.65-.82-1.48-.43-.78-.53-1-.13-.58.76,1,.85,1.16,1,1.79L85,25.08l.57,1.34.58,1.72Z"/></g><g id="I-3" data-name="I" class="cls-4"><path d="M104.07,60.89V92.81a10.26,10.26,0,0,0,.33,2.71,4,4,0,0,0,1.72,2.18,7.44,7.44,0,0,0,4.25,1h.28v.9H99.78V54.1h10.87V55q-4.16,0-5.36,1.62A7,7,0,0,0,104.07,60.89Z"/><path d="M96.51,54.1V99.57H85.64v-.9c2.74,0,4.53-.53,5.35-1.61a6.77,6.77,0,0,0,1.23-4.25V60.89q0-3.15-1.61-4.56a7.45,7.45,0,0,0-5-1.4V54.1Z"/></g><g id="L-2" data-name="L" class="cls-5"><path d="M155.09,87.8l-1.85,11.77H126.83V54.1h11V55q-4.16,0-5.44,1.59a6.65,6.65,0,0,0-1.28,4.31v30.4a6.39,6.39,0,0,0,1.26,4.28c.84,1,2.5,1.46,5,1.46H141a15.86,15.86,0,0,0,7.09-1.63q3.33-1.64,5.93-7.6Z"/><path d="M123.56,54.1V99.57H112.68v-.9q4.16,0,5.37-1.59a6.85,6.85,0,0,0,1.21-4.27V60.89a5.94,5.94,0,0,0-1.5-4.43c-1-1-2.7-1.47-5.08-1.47V54.1Z"/></g><g id="D-2" data-name="D" class="cls-6"><path d="M216.11,77.56a20.34,20.34,0,0,1-1.79,8.52,19.79,19.79,0,0,1-5.4,7,25.81,25.81,0,0,1-9,4.75c7.07-3.38,12-11.38,12-20.71,0-9.9-5.6-18.3-13.36-21.29L199,56a27.29,27.29,0,0,1,9.45,5.17,22.15,22.15,0,0,1,5.72,7.52A21.39,21.39,0,0,1,216.11,77.56Z"/><path d="M208.71,76.72c0-10.66-6.39-19.6-15-22l-.49-.13a44.32,44.32,0,0,0-5.17-.47c-.6,0-1.2,0-1.82,0H170.9V99.57h16.76c1,0,2,0,3-.09q-.56-.06-1.11-.15C200.16,99.07,208.71,89,208.71,76.72ZM194.17,95.28a16.6,16.6,0,0,1-4.7,1.4,41.47,41.47,0,0,1-5.64.35h-.5a21.35,21.35,0,0,1-3.31-.27,8.33,8.33,0,0,1-1.43-.39,4,4,0,0,1-2.37-2.08,5.44,5.44,0,0,1-.3-.86,11.12,11.12,0,0,1-.33-3V57.15a30.13,30.13,0,0,1,4.49-.51h.64c1.17,0,2.3,0,3.38.14a24.74,24.74,0,0,1,7.48,1.77,18.68,18.68,0,0,1,7.09,5,19.71,19.71,0,0,1,3.78,6.79,24.48,24.48,0,0,1,1.15,7.38,24.88,24.88,0,0,1-1,7,18.77,18.77,0,0,1-3.1,6.17A14.74,14.74,0,0,1,194.17,95.28Z"/><path d="M167.63,54.1V99.57H157.15v-.9q4.18,0,5.4-1.59a6.85,6.85,0,0,0,1.21-4.27V61a8,8,0,0,0-1.08-4.28C162,55.57,160.24,55,157.54,55h-.39V54.1Z"/></g><g id="I-4" data-name="I" class="cls-7"><path d="M238.35,60.89V92.81a10.72,10.72,0,0,0,.32,2.71,4,4,0,0,0,1.72,2.18,7.46,7.46,0,0,0,4.25,1h.29v.9H234.05V54.1h10.88V55q-4.16,0-5.37,1.62A7,7,0,0,0,238.35,60.89Z"/><path d="M230.78,54.1V99.57H219.91v-.9c2.75,0,4.53-.53,5.35-1.61a6.77,6.77,0,0,0,1.23-4.25V60.89q0-3.15-1.61-4.56a7.45,7.45,0,0,0-5-1.4V54.1Z"/></g><g id="Z-2" data-name="Z" class="cls-8"><path d="M299,88.17l-1.85,11.4H255.06L291.84,54.1H298L263.22,97h20.14a29.64,29.64,0,0,0,5.69-.46A11.45,11.45,0,0,0,293,95.08a9.94,9.94,0,0,0,2.73-2.64A23.05,23.05,0,0,0,298,88.17Z"/><path d="M287.75,54.1,251,99.57h-4.09l34.71-42.94H262.28a21.63,21.63,0,0,0-4.9.51,8.54,8.54,0,0,0-4.17,2.56,13.3,13.3,0,0,0-3,6.16h-1l1.19-11.76Z"/></g><path d="M22.91,104H33c2,0,3.48,0,4.46.12a11.11,11.11,0,0,1,2.63.48,5.89,5.89,0,0,1,1.94,1A1.75,1.75,0,0,1,42.8,107a1.92,1.92,0,0,1-.95,1.51,6.83,6.83,0,0,1-2.59,1,9.35,9.35,0,0,1,3.54,1.06A2.11,2.11,0,0,1,44,112.32a2.17,2.17,0,0,1-.8,1.55,5.6,5.6,0,0,1-2.18,1.21,13.58,13.58,0,0,1-3.42.55c-.85.05-2.89.07-6.14.08H22.91Zm5.1,2v2.71h3.33c2,0,3.22,0,3.7,0a5.8,5.8,0,0,0,2.06-.42c.5-.23.75-.54.75-.92a1,1,0,0,0-.65-.88,4.82,4.82,0,0,0-1.92-.41c-.5,0-2,0-4.35,0Zm0,4.66v3.13h4.71c1.84,0,3,0,3.49-.07a4.94,4.94,0,0,0,1.85-.47,1.12,1.12,0,0,0,.72-1,1.08,1.08,0,0,0-.55-.9,4.16,4.16,0,0,0-1.59-.53,35.06,35.06,0,0,0-4.52-.17Z"/><path d="M51.92,109.82l-4.39-.37a4.44,4.44,0,0,1,2.55-1.82,18.13,18.13,0,0,1,5.37-.59,23.85,23.85,0,0,1,4.82.35,5.47,5.47,0,0,1,2.22.9,2.56,2.56,0,0,1,.65,2l0,2.63a4.32,4.32,0,0,0,.23,1.65,3.54,3.54,0,0,0,.87,1.13H59.41a5.32,5.32,0,0,1-.47-.66l-.17-.26a12.61,12.61,0,0,1-2.65.84,16,16,0,0,1-3,.28,11.25,11.25,0,0,1-4.45-.72c-1.08-.47-1.62-1.07-1.62-1.79a1.61,1.61,0,0,1,.74-1.29,5.4,5.4,0,0,1,2.07-.86,31.77,31.77,0,0,1,3.84-.52c2.26-.2,3.83-.38,4.7-.55V110a1,1,0,0,0-.69-.92,8.15,8.15,0,0,0-2.6-.28,6.62,6.62,0,0,0-2,.24A2.34,2.34,0,0,0,51.92,109.82Zm6.47,1.82c-.62.09-1.6.21-2.94.34a18.86,18.86,0,0,0-2.63.39c-.63.21-1,.47-1,.79s.25.59.76.82a4.62,4.62,0,0,0,1.92.34,7.66,7.66,0,0,0,2.5-.4,1.54,1.54,0,0,0,1.34-1.83Z"/><path d="M65.62,107.23h5.14l4.37,6,4.27-6h5L78,115.39l-1.15,1.48A6.53,6.53,0,0,1,75.59,118a5.27,5.27,0,0,1-1.33.63,10.17,10.17,0,0,1-1.84.38,20.23,20.23,0,0,1-2.47.14,27.11,27.11,0,0,1-2.73-.14l-.43-1.76c.75.07,1.44.11,2,.11a5.31,5.31,0,0,0,2.5-.46,3.42,3.42,0,0,0,1.24-1.17Z"/><path d="M91.11,109.82l-4.38-.37a4.38,4.38,0,0,1,2.54-1.82,18.22,18.22,0,0,1,5.37-.59,23.78,23.78,0,0,1,4.82.35,5.53,5.53,0,0,1,2.23.9,2.56,2.56,0,0,1,.64,2l0,2.63a4.52,4.52,0,0,0,.23,1.65,3.85,3.85,0,0,0,.87,1.13H98.6a6.65,6.65,0,0,1-.47-.66,1.93,1.93,0,0,0-.17-.26,12.43,12.43,0,0,1-2.65.84,16,16,0,0,1-3,.28,11.25,11.25,0,0,1-4.45-.72c-1.08-.47-1.62-1.07-1.62-1.79a1.61,1.61,0,0,1,.74-1.29,5.4,5.4,0,0,1,2.07-.86,31.7,31.7,0,0,1,3.85-.52c2.26-.2,3.82-.38,4.69-.55V110a1,1,0,0,0-.69-.92,8.08,8.08,0,0,0-2.59-.28,6.74,6.74,0,0,0-2,.24A2.34,2.34,0,0,0,91.11,109.82Zm6.47,1.82c-.62.09-1.6.21-2.94.34a18.86,18.86,0,0,0-2.63.39c-.63.21-1,.47-1,.79s.25.59.76.82a4.67,4.67,0,0,0,1.93.34,7.64,7.64,0,0,0,2.49-.4,2.1,2.1,0,0,0,1.15-.74,2.13,2.13,0,0,0,.19-1.09Z"/><path d="M123.72,115.71h-4.84v-4.33a3.29,3.29,0,0,0-.31-1.78,2,2,0,0,0-1-.62,5.54,5.54,0,0,0-1.68-.23,7.52,7.52,0,0,0-2.26.32,2.59,2.59,0,0,0-1.36.85,3.59,3.59,0,0,0-.37,2v3.84h-4.84v-8.48h4.49v1.24a11.61,11.61,0,0,1,6-1.43,15.5,15.5,0,0,1,2.93.26,6.29,6.29,0,0,1,2,.69,2.38,2.38,0,0,1,1,.94,3.37,3.37,0,0,1,.27,1.51Z"/><path d="M138.51,115.71V104h5.09v5.2l10.29-5.2h6.85l-9.5,4.56,10,7.15h-6.59l-6.94-5.49-4.13,2v3.54Z"/><path d="M175.88,115.71v-1.27a7.77,7.77,0,0,1-2.62,1.07,14.74,14.74,0,0,1-3.44.4,13.36,13.36,0,0,1-3.3-.38,4.42,4.42,0,0,1-2.11-1,2.6,2.6,0,0,1-.66-1.88v-5.37h4.84v3.9a5.19,5.19,0,0,0,.26,2.19,1.81,1.81,0,0,0,1,.64,5.65,5.65,0,0,0,1.79.24,7.21,7.21,0,0,0,2.22-.32,2.78,2.78,0,0,0,1.35-.78,4.47,4.47,0,0,0,.36-2.29v-3.58h4.83v8.48Z"/><path d="M189,109.82l-4.39-.37a4.44,4.44,0,0,1,2.55-1.82,18.13,18.13,0,0,1,5.37-.59,23.67,23.67,0,0,1,4.81.35,5.47,5.47,0,0,1,2.23.9,2.56,2.56,0,0,1,.65,2l-.05,2.63a4.32,4.32,0,0,0,.23,1.65,3.54,3.54,0,0,0,.87,1.13h-4.79a6.87,6.87,0,0,1-.46-.66l-.17-.26a12.61,12.61,0,0,1-2.65.84,16,16,0,0,1-3,.28,11.22,11.22,0,0,1-4.45-.72c-1.08-.47-1.63-1.07-1.63-1.79a1.63,1.63,0,0,1,.74-1.29,5.52,5.52,0,0,1,2.08-.86,31.77,31.77,0,0,1,3.84-.52c2.26-.2,3.83-.38,4.7-.55V110a1,1,0,0,0-.69-.92,8.15,8.15,0,0,0-2.6-.28,6.62,6.62,0,0,0-2,.24A2.34,2.34,0,0,0,189,109.82Zm6.47,1.82c-.62.09-1.6.21-2.94.34a18.86,18.86,0,0,0-2.63.39c-.64.21-.95.47-.95.79s.25.59.76.82a4.62,4.62,0,0,0,1.92.34,7.7,7.7,0,0,0,2.5-.4,1.54,1.54,0,0,0,1.34-1.83Z"/><path d="M202.86,107.23h2.68v-.64A2.3,2.3,0,0,1,206,105a3.75,3.75,0,0,1,1.81-.86,14,14,0,0,1,3.33-.33,28.36,28.36,0,0,1,4,.29l-.65,1.56a21.5,21.5,0,0,0-2.22-.12,3.71,3.71,0,0,0-1.51.22.9.9,0,0,0-.45.88v.6H214V109h-3.61v6.72h-4.84V109h-2.68Z"/><path d="M215.59,111.35a2.91,2.91,0,0,1,1.19-2.16,8,8,0,0,1,3.36-1.6A19.68,19.68,0,0,1,225,107a15.92,15.92,0,0,1,6.8,1.25c1.76.83,2.65,1.88,2.65,3.16s-.9,2.34-2.68,3.19a15.8,15.8,0,0,1-6.74,1.27,21.31,21.31,0,0,1-4.79-.53,8,8,0,0,1-3.46-1.55A3.12,3.12,0,0,1,215.59,111.35Zm3.46-5.62V103.8h4.14v1.93Zm1.49,5.74a2.09,2.09,0,0,0,1.29,1.93,6.84,6.84,0,0,0,3.19.68,6.73,6.73,0,0,0,3.17-.68,2.09,2.09,0,0,0,1.28-2,2.06,2.06,0,0,0-1.28-1.91,6.73,6.73,0,0,0-3.17-.67,6.84,6.84,0,0,0-3.19.67A2.09,2.09,0,0,0,220.54,111.47Zm5.91-5.74V103.8h4.16v1.93Z"/><path d="M242.86,115.71H238v-8.48h4.49v1.2a6.82,6.82,0,0,1,2.08-1.12,7.41,7.41,0,0,1,2.09-.27,12,12,0,0,1,3.18.42l-1.5,2a7.72,7.72,0,0,0-2.27-.37,5.1,5.1,0,0,0-1.72.26,2.12,2.12,0,0,0-1.11.94,6.44,6.44,0,0,0-.4,2.84Z"/><path d="M264,115.71v-1.27a7.86,7.86,0,0,1-2.62,1.07,14.74,14.74,0,0,1-3.44.4,13.3,13.3,0,0,1-3.3-.38,4.46,4.46,0,0,1-2.12-1,2.63,2.63,0,0,1-.65-1.88v-5.37h4.83v3.9a5.13,5.13,0,0,0,.27,2.19,1.81,1.81,0,0,0,1,.64,5.65,5.65,0,0,0,1.79.24,7.21,7.21,0,0,0,2.22-.32,2.69,2.69,0,0,0,1.34-.78,4.47,4.47,0,0,0,.36-2.29v-3.58h4.84v8.48Zm-9.6-10V103.8h4.15v1.93Zm7.4,0V103.8h4.16v1.93Z"/><polygon class="cls-9" points="50.27 9.16 50.27 14.78 15.03 14.78 15.03 55.83 9.64 55.83 9.64 9.16 50.27 9.16"/><polygon class="cls-10" points="312.81 69.2 312.81 116.05 271.99 116.05 271.99 110.45 307.44 110.45 307.44 69.2 312.81 69.2"/><path d="M409.6,89.87a16.3,16.3,0,0,0-.43-2.19C407.39,81,402.61,76,397.64,71.63a143.56,143.56,0,0,1-16.33-16.2C375.17,48,374,39.39,377,30.2c1.2-3.81,4-6.94,7-9.35A7,7,0,0,0,385.82,19c1.94-3.27-1.94-3.42-3.81-3.12-2.23.37-4.47.73-6.68,1.23a94.18,94.18,0,0,0-16.7,5.9c-6.92,3-13,5.49-18.87,10.51C332.59,39.7,326,46.92,323.38,56.42a35.82,35.82,0,0,0,2.88,26.33c4.42,8,11.74,13.77,17.63,20.69,1.84,2.16,3.69,4.54,6.33,5.43a2.28,2.28,0,0,0,1.5.09,2,2,0,0,0,1.06-2.27,5.55,5.55,0,0,0-1.28-2.37c-3.85-4.86-8.47-9-12.51-13.69-8.65-10-12.61-24.29-4.86-36.08a62.23,62.23,0,0,1,15.6-16.18,64.64,64.64,0,0,1,9.62-5.74c1-.5,5.65-3.32,6.63-2.21,1.12,1.27-3,8.21-3.57,9.46-.69,1.48-1,3.68-2.63,3.15s-2.18-4.21-4.16-2,1.21,3.85,2.58,5.58c.15.23.45.23.68.39,2,1.36,1.2,3-.36,4.37-2.8,2.49-6.28,4.21-8.89,6.89-2.44,2.51-1.28,4.07.91,6.35a7.25,7.25,0,0,0,1.52,1.1,1.44,1.44,0,0,1,.68.39,1.8,1.8,0,0,1,.07,2.52c-1.59,2.12-5,3.61-1.51,6.83a2.16,2.16,0,0,1-.61.87c-2.95,2.12-1.51,3.85.61,5.27,1,.62,1.89,1.1.6,2.2a5.43,5.43,0,0,0-1.36,7c1.59,3.15,3.87,5.9,8.11,5.74,3.87-.16,7.81.24,11.67-.08,6.37-.63,10.46,2.6,13.57,7.78,1.59,2.6,3.11,5.43,4.62,8.1l1.67.16c0-3.85.08-7.71,0-11.64A27.2,27.2,0,0,0,384.34,85c-3.63-4.72-4.77-10.38-7.35-15.57,1.75,1.89,4.09,2.52,5.84,4,4.24,3.77,11,4.09,13.64,10.22.76,1.73,2.94,3.24,3,.06,0-1.1-.41-2.22-.12-3.29-.09.34,4.53,5.55,4.93,6.65a10.27,10.27,0,0,1-.69,7.92,62.44,62.44,0,0,0-3.06,6.53C405.23,100.62,410.15,94.93,409.6,89.87Zm-81.18-8.5c0,.07.08.13.11.2A1.28,1.28,0,0,1,328.42,81.37Zm2.41,4.23a11.24,11.24,0,0,0-1.23-.54,1.53,1.53,0,0,0,.32-.86,2.36,2.36,0,0,0-.2-.85A5,5,0,0,1,330.83,85.6ZM326,70.87a25.54,25.54,0,0,0,1.79,9.25,1.33,1.33,0,0,0-.62-.55,6.29,6.29,0,0,0-.51-2c-.66-1.54-.69-3.79-.91-5.46a36.86,36.86,0,0,1-.36-6.21c.07-1.79.32-3.57.44-5.36a17.47,17.47,0,0,1,.43-3.69,12.54,12.54,0,0,1,1.22-2.66A63.52,63.52,0,0,1,333,46,41.27,41.27,0,0,0,326,70.87Zm28.75-42.21c-1.24.55-2.46,1.15-3.66,1.78,1.59-.91,3.21-1.76,4.87-2.52a10.21,10.21,0,0,0,1.89-1A7.78,7.78,0,0,1,354.76,28.66Z"/></g></g></svg>